<svg width="121" height="40" viewBox="0 0 121 40" fill="none" xmlns="http://www.w3.org/2000/svg">
<path fill-rule="evenodd" clip-rule="evenodd" d="M12.4008 15.5293V32.2797H18.6975V15.5293H23.1148V9.3988H18.6975V8.35601C18.6975 6.40216 19.6148 5.63105 21.7137 5.63105C22.6337 5.63105 23.2892 5.72161 23.6831 5.85881V0.227767C22.8081 0.093302 21.9331 0 21.0582 0C18.3037 0 16.247 0.548835 14.9808 1.68218C13.2731 3.0872 12.4008 5.44993 12.4008 8.7649V9.3988H8.77129V15.5293H12.4008ZM6.60537 9.28094H0.597071V25.914C0.597071 30.1712 2.22584 32.2794 5.89688 32.2794C7.271 32.2794 8.2291 32.1467 8.77118 31.919V26.2283C8.64764 26.2744 8.39803 26.3015 8.02235 26.3178C6.6911 26.3665 6.60537 25.5997 6.60537 23.9412V9.28094ZM6.96136 4.88336C7.58916 2.23584 5.82172 0.000213623 3.54497 0.000213623C1.58591 0.000213623 0 1.65864 0 3.81026C0 6.41172 2.41794 8.333 4.97456 7.287C5.95787 6.88323 6.70166 5.97814 6.96136 4.88336ZM31.7887 23.8333C32.9027 24.9232 34.283 25.4906 35.927 25.4906C37.5737 25.4906 38.954 24.9232 40.068 23.8333C41.1792 22.6959 41.7604 21.3447 41.7604 19.727C41.7604 18.1119 41.1792 16.7581 40.068 15.6681C38.954 14.5334 37.5737 13.966 35.927 13.966C34.283 13.966 32.9027 14.5334 31.7887 15.6681C30.6748 16.7581 30.0963 18.1119 30.0963 19.727C30.0963 21.3447 30.6748 22.7407 31.7887 23.8333ZM44.741 11.4743C47.1895 13.7016 48.2442 16.4541 48.2442 19.7265C48.2442 23.0042 47.1895 25.754 44.741 28.0236C42.2924 30.2509 39.3569 31.3831 35.9262 31.3831C32.4552 31.3831 29.517 30.2509 27.0685 28.0236C24.6684 25.754 23.6836 23.0042 23.6836 19.7265C23.6836 16.4541 24.6684 13.7016 27.0685 11.4743C29.517 9.20735 32.4552 8.06993 35.9262 8.06993C39.3569 8.06993 42.2924 9.20735 44.741 11.4743ZM66.1181 16.2499L70.1731 12.1837C67.7166 9.42621 64.6943 8.06993 61.1139 8.06993C57.7473 8.06993 54.9023 9.20942 52.5711 11.4408C50.2867 13.6695 49.1211 16.4244 49.1211 19.7477C49.1211 23.0736 50.2867 25.8284 52.5711 28.0598C54.9023 30.2912 57.7473 31.3831 61.1139 31.3831C64.6943 31.3831 67.7166 30.0268 70.1731 27.2719L66.1181 23.2058C64.6943 24.7339 63.0566 25.4768 61.1139 25.4768C58.0081 25.4768 55.549 23.0736 55.549 19.7477C55.549 16.4244 57.9638 13.9762 61.1139 13.9762C63.0566 13.9762 64.6943 14.7191 66.1181 16.2499ZM78.3267 23.8333C79.4347 24.9232 80.8136 25.4906 82.4528 25.4906C84.0947 25.4906 85.4709 24.9232 86.5816 23.8333C87.6896 22.6959 88.269 21.3447 88.269 19.727C88.269 18.1119 87.6896 16.7581 86.5816 15.6681C85.4709 14.5334 84.0947 13.966 82.4528 13.966C80.8136 13.966 79.4347 14.5334 78.3267 15.6681C77.2161 16.7581 76.6393 18.1119 76.6393 19.727C76.6393 21.3447 77.2161 22.7407 78.3267 23.8333ZM91.2409 11.4743C93.6822 13.7016 94.7338 16.4541 94.7338 19.7265C94.7338 23.0042 93.6822 25.754 91.2409 28.0236C88.7996 30.2509 85.8727 31.3831 82.4522 31.3831C78.9914 31.3831 76.0618 30.2509 73.6205 28.0236C71.2248 25.754 70.1732 23.0042 70.1732 19.7265C70.1732 16.4541 71.2248 13.7016 73.6205 11.4743C76.0618 9.20735 78.9914 8.06993 82.4522 8.06993C85.8727 8.06993 88.7996 9.20735 91.2409 11.4743ZM114.193 19.9815C114.193 21.5559 113.655 22.9046 112.53 24.0304C111.408 25.1072 110.061 25.651 108.441 25.651C106.779 25.651 105.385 25.1072 104.214 24.0304C103.092 22.9046 102.51 21.5559 102.51 19.9815C102.51 18.407 103.092 17.0583 104.214 15.9761C105.385 14.853 106.779 14.3146 108.441 14.3146C110.061 14.3146 111.408 14.853 112.53 15.9761C113.655 17.0583 114.193 18.407 114.193 19.9815ZM96.2156 8.64473V40H102.913V28.3482C103.587 30.325 106.241 31.7227 109.654 31.7227C112.847 31.7227 115.542 30.597 117.658 28.3482C119.816 26.0532 120.892 23.266 120.892 19.9811C120.892 16.6963 120.185 13.9064 118.028 11.6576C115.917 9.36261 113.613 8.09273 109.654 8.09273C105.508 8.09273 103.587 9.63453 102.913 11.6141V8.64473H96.2156Z" fill="#fff"/>
</svg>
