<svg width="208" height="40" viewBox="0 0 208 40" fill="none" xmlns="http://www.w3.org/2000/svg">
<path fill-rule="evenodd" clip-rule="evenodd" d="M12.4008 15.5293V32.2797H18.6975V15.5293H23.1148V9.3988H18.6975V8.35601C18.6975 6.40216 19.6148 5.63105 21.7137 5.63105C22.6337 5.63105 23.2892 5.72161 23.6831 5.85881V0.227767C22.8081 0.093302 21.9331 0 21.0582 0C18.3037 0 16.247 0.548835 14.9808 1.68218C13.2731 3.0872 12.4008 5.44993 12.4008 8.7649V9.3988H8.77129V15.5293H12.4008ZM6.60537 9.28094H0.597071V25.914C0.597071 30.1712 2.22584 32.2794 5.89688 32.2794C7.271 32.2794 8.2291 32.1467 8.77118 31.919V26.2283C8.64764 26.2744 8.39803 26.3015 8.02235 26.3178C6.6911 26.3665 6.60537 25.5997 6.60537 23.9412V9.28094ZM6.96136 4.88336C7.58916 2.23584 5.82172 0.000213623 3.54497 0.000213623C1.58591 0.000213623 0 1.65864 0 3.81026C0 6.41172 2.41794 8.333 4.97456 7.287C5.95787 6.88323 6.70166 5.97814 6.96136 4.88336ZM31.7887 23.8333C32.9027 24.9232 34.283 25.4906 35.927 25.4906C37.5737 25.4906 38.954 24.9232 40.068 23.8333C41.1792 22.6959 41.7604 21.3447 41.7604 19.727C41.7604 18.1119 41.1792 16.7581 40.068 15.6681C38.954 14.5334 37.5737 13.966 35.927 13.966C34.283 13.966 32.9027 14.5334 31.7887 15.6681C30.6748 16.7581 30.0963 18.1119 30.0963 19.727C30.0963 21.3447 30.6748 22.7407 31.7887 23.8333ZM44.741 11.4743C47.1895 13.7016 48.2442 16.4541 48.2442 19.7265C48.2442 23.0042 47.1895 25.754 44.741 28.0236C42.2924 30.2509 39.3569 31.3831 35.9262 31.3831C32.4552 31.3831 29.517 30.2509 27.0685 28.0236C24.6684 25.754 23.6836 23.0042 23.6836 19.7265C23.6836 16.4541 24.6684 13.7016 27.0685 11.4743C29.517 9.20735 32.4552 8.06993 35.9262 8.06993C39.3569 8.06993 42.2924 9.20735 44.741 11.4743ZM66.1181 16.2499L70.1731 12.1837C67.7166 9.42621 64.6943 8.06993 61.1139 8.06993C57.7473 8.06993 54.9023 9.20942 52.5711 11.4408C50.2867 13.6695 49.1211 16.4244 49.1211 19.7477C49.1211 23.0736 50.2867 25.8284 52.5711 28.0598C54.9023 30.2912 57.7473 31.3831 61.1139 31.3831C64.6943 31.3831 67.7166 30.0268 70.1731 27.2719L66.1181 23.2058C64.6943 24.7339 63.0566 25.4768 61.1139 25.4768C58.0081 25.4768 55.549 23.0736 55.549 19.7477C55.549 16.4244 57.9638 13.9762 61.1139 13.9762C63.0566 13.9762 64.6943 14.7191 66.1181 16.2499ZM78.3267 23.8333C79.4347 24.9232 80.8136 25.4906 82.4528 25.4906C84.0947 25.4906 85.4709 24.9232 86.5816 23.8333C87.6896 22.6959 88.269 21.3447 88.269 19.727C88.269 18.1119 87.6896 16.7581 86.5816 15.6681C85.4709 14.5334 84.0947 13.966 82.4528 13.966C80.8136 13.966 79.4347 14.5334 78.3267 15.6681C77.2161 16.7581 76.6393 18.1119 76.6393 19.727C76.6393 21.3447 77.2161 22.7407 78.3267 23.8333ZM91.2409 11.4743C93.6822 13.7016 94.7338 16.4541 94.7338 19.7265C94.7338 23.0042 93.6822 25.754 91.2409 28.0236C88.7996 30.2509 85.8727 31.3831 82.4522 31.3831C78.9914 31.3831 76.0618 30.2509 73.6205 28.0236C71.2248 25.754 70.1732 23.0042 70.1732 19.7265C70.1732 16.4541 71.2248 13.7016 73.6205 11.4743C76.0618 9.20735 78.9914 8.06993 82.4522 8.06993C85.8727 8.06993 88.7996 9.20735 91.2409 11.4743ZM114.193 19.9815C114.193 21.5559 113.655 22.9046 112.53 24.0304C111.408 25.1072 110.061 25.651 108.441 25.651C106.779 25.651 105.385 25.1072 104.214 24.0304C103.092 22.9046 102.51 21.5559 102.51 19.9815C102.51 18.407 103.092 17.0583 104.214 15.9761C105.385 14.853 106.779 14.3146 108.441 14.3146C110.061 14.3146 111.408 14.853 112.53 15.9761C113.655 17.0583 114.193 18.407 114.193 19.9815ZM96.2156 8.64473V40H102.913V28.3482C103.587 30.325 106.241 31.7227 109.654 31.7227C112.847 31.7227 115.542 30.597 117.658 28.3482C119.816 26.0532 120.892 23.266 120.892 19.9811C120.892 16.6963 120.185 13.9064 118.028 11.6576C115.917 9.36261 113.613 8.09273 109.654 8.09273C105.508 8.09273 103.587 9.63453 102.913 11.6141V8.64473H96.2156Z" fill="#439F35"/>
<path d="M134.964 8.18406L132.026 15.2384L129.125 8.18406H127.892L131.428 16.6529H132.625L136.215 8.18406H134.964Z" fill="#439F35"/>
<path d="M137.658 5.88096C138.165 5.88096 138.564 5.53641 138.564 5.06491C138.564 4.57527 138.165 4.23071 137.658 4.23071C137.186 4.23071 136.769 4.57527 136.769 5.06491C136.769 5.53641 137.186 5.88096 137.658 5.88096ZM137.077 16.6529H138.238V8.18406H137.077V16.6529Z" fill="#439F35"/>
<path d="M146.184 8.18406L143.246 15.2384L140.344 8.18406H139.111L142.648 16.6529H143.844L147.435 8.18406H146.184Z" fill="#439F35"/>
<path d="M152.123 8.00272C150.8 8.00272 149.893 8.81878 149.476 10.2514V8.18406H148.297V16.6529H149.476V13.4612C149.476 11.3758 150.092 9.12706 152.105 9.12706C152.414 9.12706 152.813 9.18147 153.248 9.36281L153.465 8.2566C153.139 8.09339 152.595 8.00272 152.123 8.00272Z" fill="#439F35"/>
<path d="M161.61 12.3913C161.61 9.70737 159.851 8.00272 157.439 8.00272C155.045 8.00272 153.123 9.70737 153.123 12.3913C153.123 15.0752 155.045 16.8343 157.439 16.8343C159.035 16.8343 160.486 16.0726 161.229 14.7125L160.232 14.2773C159.669 15.2022 158.636 15.7281 157.475 15.7281C155.771 15.7281 154.501 14.7125 154.302 12.8991H161.592C161.61 12.7359 161.61 12.5545 161.61 12.3913ZM154.32 11.9017C154.537 10.0882 155.771 9.10893 157.439 9.10893C159.089 9.10893 160.304 10.1426 160.467 11.9017H154.32Z" fill="#439F35"/>
<path d="M174.618 12.3913C174.618 9.70737 172.859 8.00272 170.447 8.00272C168.054 8.00272 166.131 9.70737 166.131 12.3913C166.131 15.0752 168.054 16.8343 170.447 16.8343C172.043 16.8343 173.494 16.0726 174.237 14.7125L173.24 14.2773C172.678 15.2022 171.644 15.7281 170.484 15.7281C168.779 15.7281 167.509 14.7125 167.31 12.8991H174.6C174.618 12.7359 174.618 12.5545 174.618 12.3913ZM167.328 11.9017C167.546 10.0882 168.779 9.10893 170.447 9.10893C172.098 9.10893 173.313 10.1426 173.476 11.9017H167.328Z" fill="#439F35"/>
<path d="M179.465 8.18406H177.524V4.81102H176.382V8.18406H174.84V9.18147H176.382V16.6529H177.524V9.18147H179.465V8.18406Z" fill="#439F35"/>
<path d="M136.052 23.1841V24.8162C135.418 23.6737 134.112 23.0027 132.679 23.0027C130.304 23.0027 128.381 24.8343 128.381 27.4094C128.381 29.9845 130.322 31.8343 132.679 31.8343C134.094 31.8343 135.418 31.1633 136.052 30.0027V31.6529H137.213V23.1841H136.052ZM132.77 30.7281C130.993 30.7281 129.542 29.2773 129.542 27.3913C129.542 25.5234 130.993 24.1089 132.77 24.1089C134.456 24.1089 136.052 25.3965 136.052 27.4457C136.052 29.4042 134.529 30.7281 132.77 30.7281Z" fill="#439F35"/>
<path d="M143.701 23.0027C142.286 23.0027 140.944 23.6918 140.328 24.8524V23.1841H139.167V35.7695H140.328V30.0027C140.962 31.1633 142.268 31.8343 143.701 31.8343C146.076 31.8343 147.999 30.0027 147.999 27.4276C147.999 24.8524 146.076 23.0027 143.701 23.0027ZM143.61 30.7281C141.924 30.7281 140.328 29.4405 140.328 27.3913C140.328 25.4328 141.851 24.1089 143.61 24.1089C145.405 24.1089 146.856 25.5597 146.856 27.4457C146.856 29.3136 145.405 30.7281 143.61 30.7281Z" fill="#439F35"/>
<path d="M153.906 23.0027C152.492 23.0027 151.15 23.6918 150.533 24.8524V23.1841H149.373V35.7695H150.533V30.0027C151.168 31.1633 152.474 31.8343 153.906 31.8343C156.282 31.8343 158.204 30.0027 158.204 27.4276C158.204 24.8524 156.282 23.0027 153.906 23.0027ZM153.816 30.7281C152.129 30.7281 150.533 29.4405 150.533 27.3913C150.533 25.4328 152.056 24.1089 153.816 24.1089C155.611 24.1089 157.062 25.5597 157.062 27.4457C157.062 29.3136 155.611 30.7281 153.816 30.7281Z" fill="#439F35"/>
<path d="M163.404 23.0027C162.081 23.0027 161.174 23.8188 160.757 25.2514V23.1841H159.578V31.6529H160.757V28.4612C160.757 26.3758 161.373 24.1271 163.386 24.1271C163.695 24.1271 164.094 24.1815 164.529 24.3628L164.746 23.2566C164.42 23.0934 163.876 23.0027 163.404 23.0027Z" fill="#439F35"/>
<path d="M172.891 27.3913C172.891 24.7074 171.132 23.0027 168.72 23.0027C166.326 23.0027 164.404 24.7074 164.404 27.3913C164.404 30.0752 166.326 31.8343 168.72 31.8343C170.316 31.8343 171.767 31.0726 172.51 29.7125L171.513 29.2773C170.951 30.2022 169.917 30.7281 168.756 30.7281C167.052 30.7281 165.782 29.7125 165.583 27.8991H172.873C172.891 27.7359 172.891 27.5545 172.891 27.3913ZM165.601 26.9017C165.818 25.0882 167.052 24.1089 168.72 24.1089C170.37 24.1089 171.585 25.1426 171.748 26.9017H165.601Z" fill="#439F35"/>
<path d="M178.296 23.0027C177.245 23.0027 175.866 23.4923 175.359 24.7074V23.1841H174.198V31.6529H175.359V26.9561C175.395 24.9069 176.827 24.1452 178.188 24.1452C179.548 24.1452 180.581 25.1426 180.581 26.7747V31.6529H181.742V26.7203C181.742 24.3809 180.346 23.0027 178.296 23.0027Z" fill="#439F35"/>
<path d="M190.662 18.4147V24.8162C190.027 23.6737 188.721 23.0027 187.289 23.0027C184.913 23.0027 182.991 24.8343 182.991 27.4094C182.991 29.9845 184.931 31.8343 187.289 31.8343C188.703 31.8343 190.027 31.1633 190.662 30.0027V31.6529H191.822V18.4147H190.662ZM187.379 30.7281C185.602 30.7281 184.151 29.2773 184.151 27.3913C184.151 25.5234 185.602 24.1089 187.379 24.1089C189.066 24.1089 190.662 25.3965 190.662 27.4457C190.662 29.4042 189.138 30.7281 187.379 30.7281Z" fill="#439F35"/>
<path d="M197.603 23.0027C196.279 23.0027 195.372 23.8188 194.955 25.2514V23.1841H193.777V31.6529H194.955V28.4612C194.955 26.3758 195.572 24.1271 197.585 24.1271C197.893 24.1271 198.292 24.1815 198.727 24.3628L198.945 23.2566C198.619 23.0934 198.074 23.0027 197.603 23.0027Z" fill="#439F35"/>
<path d="M207.089 27.3913C207.089 24.7074 205.33 23.0027 202.918 23.0027C200.525 23.0027 198.602 24.7074 198.602 27.3913C198.602 30.0752 200.525 31.8343 202.918 31.8343C204.514 31.8343 205.965 31.0726 206.709 29.7125L205.711 29.2773C205.149 30.2022 204.115 30.7281 202.955 30.7281C201.25 30.7281 199.981 29.7125 199.781 27.8991H207.071C207.089 27.7359 207.089 27.5545 207.089 27.3913ZM199.799 26.9017C200.017 25.0882 201.25 24.1089 202.918 24.1089C204.569 24.1089 205.784 25.1426 205.947 26.9017H199.799Z" fill="#439F35"/>
</svg>
